# xmcd CD database file
#
# Track frame offsets:
#	187
#	35322
#	57297
#	93370
#	136355
#	180670
#
# Disc length: 2581 seconds
#
# Revision: 0
# Processed by: cddbd v1.5.1PL2 Copyright (c) Steve Scherf et al.
# Submitted via: CDex 1.51
#
DISCID=480a1306
DTITLE=Grant's Stand - Freedom Book
DYEAR=1963
DGENRE=Jazz
TTITLE0=A Lunar Tune
TTITLE1=Cry Me Not
TTITLE2=Grant's Stand
TTITLE3=A Day to Mourn
TTITLE4=Al's In
TTITLE5=Stella By Starlight
EXTD=YEAR: 1963
EXTT0=
EXTT1=
EXTT2=
EXTT3=
EXTT4=
EXTT5=
PLAYORDER=
